<svg fill="none" xmlns="http://www.w3.org/2000/svg" viewBox="0 0 130 52"><path d="M62.3 6.5c0-.6.2-1.1.6-1.5.4-.4 1-.6 1.6-.6.7 0 1.2.2 1.6.6.4.4.6.9.6 1.5a2 2 0 0 1-.6 1.5c-.4.3-1 .5-1.6.5-.7 0-1.2-.2-1.6-.5a2 2 0 0 1-.6-1.5Zm4.2 18.8h-4v-15h4v15ZM68.8 17.7c0-2.3.6-4.1 1.6-5.5C71.5 10.8 73 10 75 10c1.6 0 2.9.5 3.8 1.7l.1-1.5h3.7v14.5c0 1.3-.3 2.4-1 3.4-.5 1-1.4 1.7-2.4 2.2a8.8 8.8 0 0 1-7 .1c-1-.4-1.8-1-2.4-1.7l1.8-2.4c1 1.1 2.2 1.7 3.6 1.7 1 0 1.9-.3 2.5-.9.6-.5.9-1.3.9-2.4V24c-1 1-2.2 1.6-3.7 1.6-1.8 0-3.2-.7-4.3-2.1a8.7 8.7 0 0 1-1.7-5.6v-.2Zm4 .3c0 1.3.3 2.4.8 3.2.5.7 1.3 1.1 2.2 1.1 1.3 0 2.1-.4 2.7-1.3v-6.3c-.6-1-1.4-1.4-2.6-1.4-1 0-1.7.4-2.3 1.2a6 6 0 0 0-.8 3.5ZM88.8 10.3l.1 1.8c1-1.4 2.5-2 4.3-2 1.6 0 2.8.4 3.5 1.4.8.9 1.2 2.3 1.2 4.1v9.7h-4v-9.6c0-.8-.2-1.4-.5-1.8-.4-.4-1-.6-1.9-.6-1 0-2 .5-2.5 1.4v10.6h-4v-15h3.8ZM100.5 6.5c0-.6.2-1.1.6-1.5.4-.4 1-.6 1.6-.6.7 0 1.2.2 1.6.6.4.4.7.9.7 1.5a2 2 0 0 1-.7 1.5c-.4.3-1 .5-1.6.5-.7 0-1.2-.2-1.6-.5a2 2 0 0 1-.6-1.5Zm4.2 18.8h-4v-15h4v15ZM112.4 6.7v3.6h2.5v3h-2.5v7.4c0 .6 0 1 .3 1.2.2.2.6.4 1.2.4l1.2-.1v3c-.8.2-1.6.4-2.4.4-2.8 0-4.3-1.5-4.3-4.3v-8h-2.2v-3h2.2V6.7h4ZM123.6 25.6c-2.2 0-4-.7-5.4-2a7.2 7.2 0 0 1-2-5.4v-.4a9 9 0 0 1 .8-4 6.4 6.4 0 0 1 6.1-3.8c2 0 3.7.7 4.9 2a7.9 7.9 0 0 1 1.7 5.5V19h-9.5c.1 1 .5 1.7 1.2 2.3.6.6 1.5 1 2.5 1 1.5 0 2.7-.6 3.6-1.8l2 2.2a6 6 0 0 1-2.5 2c-1 .5-2.2.8-3.4.8Zm-.5-12.3c-.7 0-1.4.2-1.9.8-.5.5-.8 1.3-1 2.3h5.6V16a3 3 0 0 0-.7-2.1c-.5-.5-1.1-.7-2-.7Z" fill="#fff"/><path opacity=".5" d="M52 .4 39.3 47.9c0 .2-.3.3-.5.1l-8.5-8.5 6.4-23.8c0-.2-.2-.4-.4-.4l-23.8 6.4L4 13.2c-.1-.1 0-.4.2-.4L51.7 0c.2 0 .4.2.3.4Z" fill="#00B37E"/><path opacity=".5" d="M30.3 39.5 27 51.8c0 .2-.3.3-.5.1L.1 25.5c-.2-.2-.1-.4.1-.5l12.3-3.3 17.8 17.8Z" fill="#00B37E"/><path d="m36.7 15.7-6.4 23.8-17.8-17.8 23.8-6.4c.2 0 .4.2.4.4Z" fill="#00B37E"/><path d="m67.6 45.6-.1-.5c-.1-.2-.3-.4-.6-.5-.2-.2-.6-.3-1.2-.4l-1.2-.4-1-.5a1.9 1.9 0 0 1-.8-1.6c0-.3 0-.6.2-.9l.7-.8a3 3 0 0 1 1-.5l1.2-.2c.7 0 1.2.1 1.7.4.5.2.8.5 1 1 .3.3.5.8.5 1.2h-1.5c0-.2 0-.4-.2-.6-.1-.3-.3-.4-.6-.6l-.9-.2c-.4 0-.7 0-1 .2l-.5.4a1.2 1.2 0 0 0 0 1c0 .2 0 .3.2.4l.6.3 1 .2 1.6.6c.5.2.8.5 1 .8.2.3.3.7.3 1.1a2.2 2.2 0 0 1-.8 1.8l-1 .5c-.4.2-.9.2-1.4.2a4 4 0 0 1-1.8-.4c-.5-.2-1-.6-1.2-1-.2-.4-.4-.9-.4-1.3H64c0 .4 0 .7.3 1l.8.4a3 3 0 0 0 1.8 0l.6-.4c.2-.2.2-.4.2-.7ZM72.3 36v11.9H71v-12h1.4Zm-.3 7.3h-.6c0-.6 0-1 .3-1.6.1-.5.3-.9.6-1.2a3 3 0 0 1 2.5-1.2c.4 0 .8 0 1 .2.4 0 .7.3 1 .5l.5 1 .1 1.4v5.5H76v-5.6c0-.4 0-.7-.2-1-.1-.3-.3-.5-.5-.6a2 2 0 0 0-1-.2 2 2 0 0 0-1.7.9 3.1 3.1 0 0 0-.6 2ZM79.2 43.8v-.2c0-.6 0-1.2.2-1.7l.8-1.4c.3-.4.7-.7 1.2-.9.5-.2 1-.3 1.6-.3l1.5.3c.5.2.9.5 1.2 1 .4.3.6.8.8 1.3.2.5.2 1 .2 1.7v.2c0 .6 0 1.1-.2 1.6a4 4 0 0 1-.8 1.4A3.5 3.5 0 0 1 83 48c-.6 0-1.1 0-1.6-.3a3.6 3.6 0 0 1-2-2.3l-.2-1.6Zm1.4-.2v.2c0 .4 0 .8.2 1.1 0 .4.2.7.4 1l.7.7c.3.2.7.2 1 .2.5 0 .8 0 1-.2.4-.2.6-.4.8-.7l.5-1 .1-1.1v-.2l-.1-1.2a3 3 0 0 0-.5-1l-.7-.7a2 2 0 0 0-1-.2 2 2 0 0 0-1.8 1c-.2.2-.3.5-.4 1l-.2 1ZM90 41v10h-1.5V39.6h1.3L90 41Zm5.5 2.6v.2c0 .6 0 1.1-.2 1.7-.1.5-.3 1-.6 1.3-.3.4-.6.7-1 .9-.4.2-.9.3-1.4.3-.5 0-1 0-1.4-.3-.4-.1-.7-.4-1-.7a4 4 0 0 1-.7-1.2 7 7 0 0 1-.3-1.6v-.9c0-.6.2-1.2.3-1.7.2-.4.4-.9.7-1.2.3-.4.6-.6 1-.8.4-.2.9-.3 1.4-.3a2.8 2.8 0 0 1 2.4 1.2c.3.4.5.8.6 1.3.2.6.2 1.2.2 1.8Zm-1.4.2v-.2l-.1-1.2a3 3 0 0 0-.4-1 2 2 0 0 0-1.7-.9c-.4 0-.7 0-1 .2a2 2 0 0 0-.6.5l-.5.7-.2.8v2c0 .4.2.8.4 1 .2.4.4.6.7.8.3.2.7.3 1.2.3.4 0 .7 0 1-.2l.7-.7.4-1 .1-1.1Z" fill="#fff"/></svg>